:FULLY-SPECIFIED
:FORCE-ALL-JOINTS-BE-3DOF
:DEGREES
1325
root -1.5477 14.9233 7.42729 352.51 26.3075 363.401
lfemur 2.88486 3.78573 -17.3002
ltibia 54.0445 0 0
lfoot -29.1377 26.4366 0
ltoes -17.2995 0 0
rfemur -50.9888 -6.73402 1.75701
rtibia 43.1243 0 0
rfoot 21.7337 8.79246 0
rtoes 7.08956 0 0
lowerback 13.1134 0.425517 -11.3592
upperback -1.6284 -1.15627 0.592932
thorax -9.04833 0.0416302 7.29326
lowerneck -4.45814 -9.33754 -11.0718
upperneck 15.014 -12.7351 7.61701
head 6.52457 -6.32774 3.26982
lclavicle -2.54749e-15 -1.24946e-14 0
lhumerus -45.2585 -42.9683 115.849
lradius 113.156 0 0
lwrist 43.9326 0 0
lhand -10.7044 49.4098 0
lfingers 7.12502 0 0
lthumb 15.3078 -281.108 0
rclavicle -2.54749e-15 -1.24946e-14 0
rhumerus 42.4447 15.9932 -51.3775
rradius 100.784 0 0
rwrist -12.8506 0 0
rhand -21.0329 -27.0974 0
rfingers 7.12502 0 0
rthumb 5.34435 -56.731 0
1326
root -1.56468 14.8976 7.61917 352.825 26.5703 363.544
lfemur 3.55931 3.51783 -17.0932
ltibia 53.3938 0 0
lfoot -28.9817 26.7183 0
ltoes -17.5773 0 0
rfemur -51.4135 -7.13078 1.82741
rtibia 43.8594 0 0
rfoot 21.0513 8.86802 0
rtoes 6.80032 0 0
lowerback 13.079 0.468353 -11.3914
upperback -1.6652 -1.10557 0.534943
thorax -9.08079 0.0690422 7.23658
lowerneck -4.2751 -9.44722 -11.1072
upperneck 14.7475 -12.8933 7.70679
head 6.43571 -6.40822 3.3026
lclavicle -1.71935e-15 -1.29494e-14 0
lhumerus -46.5399 -42.1516 115.619
lradius 112.868 0 0
lwrist 44.3592 0 0
lhand -10.6466 49.2279 0
lfingers 7.12502 0 0
lthumb 15.3635 -281.292 0
rclavicle -1.71935e-15 -1.29494e-14 0
rhumerus 43.3187 14.9328 -50.3892
rradius 100.224 0 0
rwrist -11.388 0 0
rhand -21.8217 -27.2413 0
rfingers 7.12502 0 0
rthumb 4.58323 -56.8695 0
1327
root -1.58169 14.8712 7.80877 353.16 26.8192 363.683
lfemur 4.21431 3.25308 -16.8852
ltibia 52.7138 0 0
lfoot -28.7945 27.0021 0
ltoes -17.8388 0 0
rfemur -51.8122 -7.5381 1.91935
rtibia 44.6149 0 0
rfoot 20.3217 8.9223 0
rtoes 6.47413 0 0
lowerback 13.0383 0.514596 -11.4152
upperback -1.70537 -1.04907 0.476561
thorax -9.11367 0.0989342 7.1738
lowerneck -4.08671 -9.5563 -11.1402
upperneck 14.4684 -13.051 7.79925
head 6.34221 -6.48843 3.33623
lclavicle -8.87555e-16 -1.34188e-14 0
lhumerus -47.7977 -41.2982 115.35
lradius 112.557 0 0
lwrist 44.8051 0 0
lhand -10.6007 49.0413 0
lfingers 7.12502 0 0
lthumb 15.4078 -281.481 0
rclavicle -8.87555e-16 -1.34188e-14 0
rhumerus 44.1787 13.8533 -49.396
rradius 99.6363 0 0
rwrist -9.89307 0 0
rhand -22.6243 -27.3891 0
rfingers 7.12502 0 0
rthumb 3.80867 -57.0108 0
1328
root -1.5987 14.8442 7.99601 353.514 27.0548 363.818
lfemur 4.85054 2.99169 -16.6767
ltibia 52.0069 0 0
lfoot -28.5784 27.2876 0
ltoes -18.085 0 0
rfemur -52.1862 -7.95484 2.03148
rtibia 45.3886 0 0
rfoot 19.5488 8.95669 0
rtoes 6.11406 0 0
lowerback 12.9917 0.563972 -11.4313
upperback -1.74863 -0.987214 0.417885
thorax -9.14689 0.131111 7.10535
lowerneck -3.89358 -9.66466 -11.171
upperneck 14.1779 -13.2081 7.89411
head 6.24449 -6.56829 3.37062
lclavicle -5.59374e-17 -1.39002e-14 0
lhumerus -49.0318 -40.4117 115.045
lradius 112.227 0 0
lwrist 45.2685 0 0
lhand -10.5658 48.8508 0
lfingers 7.12502 0 0
lthumb 15.4414 -281.673 0
rclavicle -5.59374e-17 -1.39002e-14 0
rhumerus 45.0245 12.7572 -48.3993
rradius 99.023 0 0
rwrist -8.36976 0 0
rhand -23.439 -27.5402 0
rfingers 7.12502 0 0
rthumb 3.0225 -57.1547 0
1329
root -1.61571 14.8167 8.18083 353.886 27.2775 363.949
lfemur 5.46867 2.73384 -16.4677
ltibia 51.2754 0 0
lfoot -28.3354 27.5742 0
ltoes -18.3167 0 0
rfemur -52.537 -8.37986 2.16239
rtibia 46.1786 0 0
rfoot 18.7363 8.97254 0
rtoes 5.72314 0 0
lowerback 12.9395 0.616206 -11.4399
upperback -1.79472 -0.920429 0.359015
thorax -9.18036 0.165379 7.03169
lowerneck -3.69632 -9.77222 -11.1997
upperneck 13.8771 -13.3643 7.99106
head 6.14295 -6.64769 3.40565
lclavicle 7.71663e-16 -1.43914e-14 0
lhumerus -50.2421 -39.4955 114.707
lradius 111.878 0 0
lwrist 45.7476 0 0
lhand -10.5413 48.6567 0
lfingers 7.12502 0 0
lthumb 15.4651 -281.869 0
rclavicle 7.71663e-16 -1.43914e-14 0
rhumerus 45.856 11.6472 -47.401
rradius 98.3868 0 0
rwrist -6.82217 0 0
rhand -24.2637 -27.6942 0
rfingers 7.12502 0 0
rthumb 2.22655 -57.3008 0
1330
root -1.63267 14.7887 8.36314 354.272 27.4878 364.077
lfemur 6.06939 2.47975 -16.2587
ltibia 50.5215 0 0
lfoot -28.0676 27.8615 0
ltoes -18.5348 0 0
rfemur -52.8658 -8.81203 2.31072
rtibia 46.9827 0 0
rfoot 17.8881 8.97123 0
rtoes 5.30443 0 0
lowerback 12.8823 0.671023 -11.4417
upperback -1.84337 -0.849151 0.300049
thorax -9.214 0.201544 6.95329
lowerneck -3.49552 -9.87885 -11.2262
upperneck 13.5672 -13.5196 8.0898
head 6.03803 -6.72656 3.44123
lclavicle 1.59141e-15 -1.48898e-14 0
lhumerus -51.4285 -38.5531 114.339
lradius 111.513 0 0
lwrist 46.2405 0 0
lhand -10.5264 48.4596 0
lfingers 7.12502 0 0
lthumb 15.4794 -282.068 0
rclavicle 1.59141e-15 -1.48898e-14 0
rhumerus 46.673 10.5258 -46.4026
rradius 97.7302 0 0
rwrist -5.25433 0 0
rhand -25.0967 -27.8507 0
rfingers 7.12502 0 0
rthumb 1.42264 -57.4486 0
1331
root -1.64957 14.7602 8.54288 354.672 27.6862 364.201
lfemur 6.65336 2.22961 -16.0499
ltibia 49.7476 0 0
lfoot -27.7773 28.149 0
ltoes -18.7401 0 0
rfemur -53.174 -9.25021 2.47509
rtibia 47.7989 0 0
rfoot 17.008 8.95413 0
rtoes 4.86097 0 0
lowerback 12.8205 0.72815 -11.4371
upperback -1.89431 -0.773813 0.241087
thorax -9.24774 0.239409 6.87059
lowerneck -3.2918 -9.98445 -11.2508
upperneck 13.2493 -13.6737 8.19004
head 5.93012 -6.8048 3.47726
lclavicle 2.39946e-15 -1.5393e-14 0
lhumerus -52.5909 -37.5879 113.943
lradius 111.133 0 0
lwrist 46.7455 0 0
lhand -10.5203 48.26 0
lfingers 7.12502 0 0
lthumb 15.4853 -282.269 0
rclavicle 2.39946e-15 -1.5393e-14 0
rhumerus 47.4754 9.39558 -45.4058
rradius 97.0559 0 0
rwrist -3.6703 0 0
rhand -25.936 -28.0092 0
rfingers 7.12502 0 0
rthumb 0.612609 -57.5978 0
